# xmcd
#
# Track frame offsets: 
#        182
#        11775
#        23462
#        36067
#        49827
#        61017
#        72532
#        84632
#        96295
#        107435
#        118655
#        130647
#        141777
#        155590
#        166967
#        178220
#        190320
#        201147
#        212990
#        223852
#        236487
#        247360
#        258592
#        270610
#        282760
#        294967
#        305622
#        317995
#
# Disc length: 4395 seconds
#
# Revision: 1
# Processed by: cddbd v1.5.2PL0 Copyright (c) Steve Scherf et al.
# Submitted via: ExactAudioCopy v1.0b3
#
DISCID=a911291c
DTITLE=Reno and Smiley - Early Years 1951-59 CD1
DYEAR=2009
DGENRE=Bluegrass
TTITLE0=When I Safely Reach That Other Shore
TTITLE1=Little Country Preacher
TTITLE2=Wings of Faith
TTITLE3=Jesus Will Save Your Soul
TTITLE4=The Lord's Last Supper
TTITLE5=I'm Using My Bible for a Roadmap
TTITLE6=I Want to Live Like Christ My Savior
TTITLE7=Let in the Guiding Light
TTITLE8=There's a Highway to Heaven
TTITLE9=Some Beautiful Day
TTITLE10=Jesus Is Standing at My Right Hand
TTITLE11=Hear Jerusalem Mourn
TTITLE12=A Pretty Wreath for Mother's Grave
TTITLE13=A Rose on God's Shore
TTITLE14=There's Another Baby Waiting for Me Down the Line
TTITLE15=Maybe You Will Change Your Mind
TTITLE16=I'm Gone, Long Gone
TTITLE17=Drifting With the Tide
TTITLE18=Tennessee Cut-Up Breakdown
TTITLE19=Crazy Finger Blues
TTITLE20=Tennessee Breakdown
TTITLE21=He's Coming Back to Earth Again
TTITLE22=I Can Hear the Angels Singing
TTITLE23=My Mother's Bible
TTITLE24=Please Don't Feel Sorry for Me
TTITLE25=I Could Cry
TTITLE26=Springtime in Dear Old Dixie
TTITLE27=Choking the Strings 
EXTD=
EXTT0=
EXTT1=
EXTT2=
EXTT3=
EXTT4=
EXTT5=
EXTT6=
EXTT7=
EXTT8=
EXTT9=
EXTT10=
EXTT11=
EXTT12=
EXTT13=
EXTT14=
EXTT15=
EXTT16=
EXTT17=
EXTT18=
EXTT19=
EXTT20=
EXTT21=
EXTT22=
EXTT23=
EXTT24=
EXTT25=
EXTT26=
EXTT27=
PLAYORDER=
